<?xml version="1.0" encoding="utf-8"?>
<!-- Generator: Adobe Illustrator 22.1.0, SVG Export Plug-In . SVG Version: 6.00 Build 0)  -->
<svg version="1.1" id="Layer_1" xmlns="http://www.w3.org/2000/svg" xmlns:xlink="http://www.w3.org/1999/xlink" x="0px" y="0px"
	 viewBox="0 0 612 145.5" style="enable-background:new 0 0 612 145.5;" xml:space="preserve">
<style type="text/css">
	.st0{fill:#57CEA2;}
	.st1{opacity:0.5;}
</style>
<title>divide</title>
<g>
	<g id="Layer_1-2">
		<path class="st0" d="M0,145.5h612V144c0-13.8-28.3-26.1-64-33.9c-0.9-0.2-1.9-0.4-2.9-0.5c-78.6-13.3-167.8-5.9-214.1,0.4
			c-65.6,9-77.6,12.4-129.3,19.1c-75.8,9.8-167.6,8.7-201.7-1.5V145.5z"/>
	</g>
	<g class="st1">
		<g id="Layer_1-2_1_">
			<path class="st0" d="M-13.5,145.5l661.6,24.7l0.1-2.2c0.8-20.5-29.1-39.8-67.3-52.9c-1-0.3-2-0.7-3.1-0.9
				c-84.2-22.9-181.1-15.5-231.5-8.1c-71.4,10.7-84.6,15.2-140.8,23.1c-82.5,11.5-181.7,6.1-218-10.4L-13.5,145.5z"/>
		</g>
	</g>
	<line class="st0" x1="737.5" y1="206.5" x2="808.2" y2="135.8"/>
	<line class="st0" x1="637" y1="218.5" x2="707.7" y2="147.8"/>
</g>
</svg>
