<?xml version="1.0" encoding="utf-8"?>
<!-- Generator: Adobe Illustrator 23.0.5, SVG Export Plug-In . SVG Version: 6.00 Build 0)  -->
<svg version="1.1" id="Layer_1" xmlns="http://www.w3.org/2000/svg" xmlns:xlink="http://www.w3.org/1999/xlink" x="0px" y="0px"
	 viewBox="0 0 179.4 48.9" style="enable-background:new 0 0 179.4 48.9;" xml:space="preserve">
<style type="text/css">
	.st0{fill:#3AB98A;}
</style>
<g>
	<path class="st0" d="M108.6,20.6C107,11.8,102,5.5,93.8,1.8c-1.6-0.7-3.4-1.2-5.2-1.5C82.5-0.6,77,0.5,72.1,3.2
		c-1.9,1.1-3.6,2.5-5.2,4.1c-2.4,2.2-4.9,4.3-7.3,6.5c-1.8,1.6-3.5,3.1-5.3,4.7c-2.2,2-4.4,3.9-6.7,5.9c-2.9,2.6-5.7,5.2-8.7,7.7
		C37.8,33,36.7,34,35.7,35c-2.8,2.8-6,4.5-9.9,4.7c-4.9,0.4-9.1-1.2-12.4-4.7c-3.5-3.7-4.8-8.1-4-13.1c0.5-3.5,2.2-6.5,4.9-8.8
		c3.7-3.2,8-4.4,12.8-3.7c3.1,0.5,5.9,2,8.1,4.1c1.7,1.6,3.5,3.1,5.2,4.7c0.2,0.2,0.3,0.2,0.5,0c2.1-1.9,4.2-3.8,6.4-5.6
		c0.2-0.2,0.2-0.3,0-0.5c-0.3-0.2-0.5-0.5-0.8-0.7c-1.9-1.7-3.8-3.5-5.8-5.2c-5.5-4.6-12.6-6.8-19.6-5.9C14.4,1.2,9,4.5,5,9.8
		C0.7,15.5-0.8,21.9,0.5,29c1.4,7.5,5.6,13.1,12.3,16.9c5,2.8,10.4,3.6,16.1,2.6c3.5-0.6,6.8-2,9.8-4c2-1.4,3.7-3.2,5.6-4.8
		c3.5-3,6.9-6.2,10.5-9.2c2-1.7,3.9-3.5,5.9-5.3c1.8-1.7,3.7-3.3,5.5-4.9c2.5-2.2,5.1-4.4,7.5-6.7c3.6-3.3,7.8-4.7,12.6-4.2
		c4.6,0.5,8.3,2.9,11,6.9c1.3,1.9,2.1,4,2.3,6.3c0.5,5.4-1.2,9.8-4.8,13.2c-2.6,2.4-5.6,3.7-9.1,4c-4,0.3-7.6-0.7-10.8-3.2
		c-2.2-1.8-4.3-3.8-6.4-5.7c-0.2-0.2-0.5-0.2-0.7,0c-2,1.8-4,3.6-6.1,5.4c-0.5,0.4-0.3,0.5,0,0.8c1.1,0.9,2.1,1.9,3.2,2.8
		c1.4,1.2,2.7,2.5,4.2,3.7c5.7,4.5,12.3,6.1,19.4,4.9c5.8-1,10.7-3.8,14.5-8.2c3.9-4.5,5.8-9.8,5.8-15.8c0.1-0.9,0-1.7-0.1-2.5
		C108.7,21.5,108.7,21.1,108.6,20.6z"/>
	<path class="st0" d="M123.8,0.1h-3.9c-1.7,0-3,1.3-3,3v42.8c0,1.7,1.3,3,3,3h3.9c1.7,0,3-1.3,3-3V3.1
		C126.8,1.4,125.4,0.1,123.8,0.1z"/>
	<path class="st0" d="M159.1,0.1L159.1,0.1c-5.4,0-10.2,1.9-13.9,5.1V3.1c0-1.7-1.3-3-3-3h-4c-1.7,0-3,1.3-3,3v42.8c0,1.7,1.3,3,3,3
		h4c1.7,0,3-1.3,3-3v-25c0-5.9,5.1-10.6,11.5-10.6h0.8c6.3,0,11.5,4.8,11.5,10.6v25c0,1.7,1.3,3,3,3h2.4h1.5h0.5c1.7,0,3-1.3,3-3
		v-0.2v-2.5V18.9C179.5,8.5,170.4,0.1,159.1,0.1z"/>
</g>
</svg>
